<svg xmlns="http://www.w3.org/2000/svg" width="30.07" height="32.696" viewBox="0 0 30.07 32.696"><g transform="translate(-76 -1046.809)"><path d="M7065.166,680.657a.74.74,0,0,1-.739-.739V672.36l8.5-7a.565.565,0,0,1,.707,0l8.5,7v3.725a7.353,7.353,0,0,0-1.536-.162,7.262,7.262,0,0,0-5.106,2.082v-2.509a2.145,2.145,0,0,0-2.172-2.308,2.3,2.3,0,0,0-1.625.655,2.261,2.261,0,0,0-.628,1.653V679.9a.74.74,0,0,1-.735.739Zm19.668-8.128a.555.555,0,0,1-.352-.127l-10.847-8.934a.56.56,0,0,0-.707,0l-10.845,8.934a.56.56,0,0,1-.352.125l-.054,0a.555.555,0,0,1-.374-.2l-1.176-1.429a.556.556,0,0,1,.073-.779l11.673-9.612a2.213,2.213,0,0,1,2.813,0l4.127,3.4v-3.348a.555.555,0,0,1,.555-.553h2.581a.554.554,0,0,1,.553.553v6.387l3.857,3.177a.563.563,0,0,1,.2.374.551.551,0,0,1-.125.407l-1.174,1.429A.553.553,0,0,1,7084.834,672.529Z" transform="translate(-6984 386.809)" fill="#ff8f65"/><path d="M15.361,13.466l-3.033-3.033a.729.729,0,0,0-.517-.213h-.5a6.324,6.324,0,1,0-1.1,1.1v.5a.729.729,0,0,0,.213.517l3.033,3.033a.727.727,0,0,0,1.031,0l.861-.861a.733.733,0,0,0,0-1.034ZM6.327,10.22A3.893,3.893,0,1,1,10.22,6.327,3.891,3.891,0,0,1,6.327,10.22Z" transform="translate(90.498 1063.93)" fill="#ff8f65"/></g></svg>