<svg xmlns="http://www.w3.org/2000/svg" width="28.953" height="34.667" viewBox="0 0 28.953 34.667"><g transform="translate(-115.117 -1045.838)"><path d="M7065.311,681.626a1.757,1.757,0,0,1-.349-.027,3.566,3.566,0,0,1-2.652-2.642c-.321-2.17,1.288-3.768,2.708-5.178l.057-.056.217-.216c.663-.769,1.245-1.454,1.86-2.18l.021-.025.013-.015.928-1.093a4.79,4.79,0,0,1,1.993-1.5,2.675,2.675,0,0,1,.375-.1,4.914,4.914,0,0,1,.9-.055,5.9,5.9,0,0,1,.89.044,2.25,2.25,0,0,1,.374.1,4.773,4.773,0,0,1,1.993,1.5c.611.709,1.143,1.336,1.706,2,.36.425.726.855,1.115,1.312l.157.157.116.116a9.135,9.135,0,0,1,2.587,3.551,7.152,7.152,0,0,0-8.213,3.773c-.216,0-.429,0-.634,0h-.2a31.464,31.464,0,0,0-4.13.345A16.671,16.671,0,0,1,7065.311,681.626Zm14.6-11.385a2.845,2.845,0,1,1,2.845-2.845A2.848,2.848,0,0,1,7079.916,670.242Zm-17.071,0a2.845,2.845,0,1,1,2.845-2.845A2.848,2.848,0,0,1,7062.845,670.242Zm11.95-4.553a2.845,2.845,0,1,1,2.845-2.845A2.849,2.849,0,0,1,7074.795,665.689Zm-6.83,0a2.845,2.845,0,1,1,2.846-2.845A2.848,2.848,0,0,1,7067.965,665.689Z" transform="translate(-6944.883 385.838)" fill="#ff8f65"/><path d="M15.361,13.466l-3.033-3.033a.729.729,0,0,0-.517-.213h-.5a6.324,6.324,0,1,0-1.1,1.1v.5a.729.729,0,0,0,.213.517l3.033,3.033a.727.727,0,0,0,1.031,0l.861-.861a.733.733,0,0,0,0-1.034ZM6.327,10.22A3.893,3.893,0,1,1,10.22,6.327,3.891,3.891,0,0,1,6.327,10.22Z" transform="translate(128.498 1064.93)" fill="#ff8f65"/></g></svg>