<svg xmlns="http://www.w3.org/2000/svg" width="237.315" height="183.044" viewBox="0 0 237.315 183.044">
  <g id="notFound" transform="translate(6465.662 847.662)">
    <path id="Sustracción_17" data-name="Sustracción 17" d="M55.982,183.044a31.987,31.987,0,0,1-3.66-.212,31.551,31.551,0,0,1-11.341-3.559,29.224,29.224,0,0,1-14.136-18.252L1.063,64.8A29.208,29.208,0,0,1,4.2,41.925,31.695,31.695,0,0,1,22.932,28.008c.134-.036.276-.073.446-.116L125.525.522A7.47,7.47,0,0,1,135.6,6.071l7.859,29.33a50.238,50.238,0,0,0,18.575,83.8,85.2,85.2,0,0,0,4.848,15.653,8.56,8.56,0,0,1,4.555,4.966l1.292,4.811a8.125,8.125,0,0,1-.927,6.173,8.023,8.023,0,0,1-4.8,3.605c-.073.019-.152.039-.244.06L64.611,181.84l-.441.122A31.645,31.645,0,0,1,55.982,183.044Zm87.448-63.573L54.3,143.353l-.126.033-.038.01a10.142,10.142,0,0,0-7.276,12.256,9.621,9.621,0,0,0,11.882,7.16c.246-.067.486-.141.713-.221l89.132-23.882ZM85.019,92.48h0a12.231,12.231,0,0,0-3.154.436,10.5,10.5,0,0,0-6.529,4.6,9.071,9.071,0,0,0-1.039,7.353,8.794,8.794,0,0,0,4.537,5.7,9.786,9.786,0,0,0,4.634,1.131,12.818,12.818,0,0,0,3.307-.46,10.483,10.483,0,0,0,6.444-4.525A8.8,8.8,0,0,0,94.3,99.512a9.076,9.076,0,0,0-4.577-5.849,9.764,9.764,0,0,0-4.7-1.182ZM79.4,49.214a6.317,6.317,0,0,1,3.351.909,7.846,7.846,0,0,1,3.324,4.918,8.413,8.413,0,0,1,.118,4.43,6.864,6.864,0,0,1-2.286,3.438c-2.315,1.951-6.041,3.624-11.075,4.973l-5.911,1.584,5.4,18.194L87.1,83.7l-1.487-7.521c6.584-1.835,11.5-5.051,14.6-9.561s3.838-9.913,2.191-16.058C100.62,43.891,97.079,39.227,91.881,36.7a22.435,22.435,0,0,0-9.912-2.185A32.88,32.88,0,0,0,73.5,35.706a28.748,28.748,0,0,0-12.2,6.279,19.912,19.912,0,0,0-6.034,9.8A21.16,21.16,0,0,0,55.66,63.3l15.863-4.251a7.791,7.791,0,0,1,.506-6A7.641,7.641,0,0,1,77,49.552,9.31,9.31,0,0,1,79.4,49.214Z" transform="translate(-6465.662 -847.662)" fill="#ff8f65"/>
    <path id="Icon_awesome-search" data-name="Icon awesome-search" d="M99.309,87.057,79.7,67.451a4.716,4.716,0,0,0-3.343-1.377H73.154a40.885,40.885,0,1,0-7.079,7.079v3.205A4.716,4.716,0,0,0,67.451,79.7L87.057,99.308a4.7,4.7,0,0,0,6.666,0l5.565-5.565a4.742,4.742,0,0,0,.02-6.686ZM40.9,66.074A25.171,25.171,0,1,1,66.075,40.9,25.157,25.157,0,0,1,40.9,66.074Z" transform="translate(-6329.024 -817.605)" fill="#ff8f65"/>
  </g>
</svg>
