<svg xmlns="http://www.w3.org/2000/svg" width="27.951" height="34.667" viewBox="0 0 27.951 34.667"><g transform="translate(-115.118 -1045.838)"><g transform="translate(115.118 1045.838)"><path d="M8.69,13.345A2.845,2.845,0,1,1,5.845,10.5,2.845,2.845,0,0,1,8.69,13.345Z" transform="translate(-3 -5.948)" fill="#ff8f65"/><path d="M15.44,7.345A2.845,2.845,0,1,1,12.595,4.5,2.845,2.845,0,0,1,15.44,7.345Z" transform="translate(-4.629 -4.5)" fill="#ff8f65"/><path d="M24.44,7.345A2.845,2.845,0,1,1,21.595,4.5,2.845,2.845,0,0,1,24.44,7.345Z" transform="translate(-6.801 -4.5)" fill="#ff8f65"/><path d="M31.19,13.345A2.845,2.845,0,1,1,28.345,10.5a2.845,2.845,0,0,1,2.845,2.845Z" transform="translate(-8.43 -5.948)" fill="#ff8f65"/><path d="M21.178,20.712c-.99-1.161-1.821-2.151-2.822-3.312a4.828,4.828,0,0,0-1.991-1.5,2.3,2.3,0,0,0-.376-.1,5.727,5.727,0,0,0-.888-.046,4.774,4.774,0,0,0-.9.057,2.3,2.3,0,0,0-.376.1,4.9,4.9,0,0,0-1.991,1.5c-.99,1.161-1.821,2.151-2.822,3.312-1.491,1.491-3.323,3.141-2.982,5.451a3.573,3.573,0,0,0,2.652,2.64c.831.171,3.482-.5,6.3-.5h.2c2.822,0,5.474.66,6.3.5a3.59,3.59,0,0,0,2.652-2.64C24.5,23.852,22.669,22.2,21.178,20.712Z" transform="translate(-3.722 -7.215)" fill="#ff8f65"/></g><g transform="translate(126.498 1063.93)" fill="#ff8f65"><path d="M 13.98254871368408 16.07523536682129 C 13.6540584564209 16.07523536682129 13.34498882293701 15.94706439971924 13.11226844787598 15.71433448791504 L 10.0796480178833 12.68172454833984 C 9.946154594421387 12.54823112487793 9.847209930419922 12.3890380859375 9.78730583190918 12.21502304077148 C 8.744263648986816 12.83145618438721 7.563683032989502 13.15363502502441 6.326838493347168 13.15363502502441 C 2.562508344650269 13.15363502502441 -0.5000016093254089 10.09113502502441 -0.5000016093254089 6.326814651489258 C -0.5000016093254089 2.56249475479126 2.562508344650269 -0.4999952912330627 6.326838493347168 -0.4999952912330627 C 10.09116840362549 -0.4999952912330627 13.15367794036865 2.56249475479126 13.15367794036865 6.326814651489258 C 13.15367794036865 7.563651561737061 12.83150196075439 8.744234085083008 12.21506309509277 9.787274360656738 C 12.38907623291016 9.847177505493164 12.548264503479 9.946121215820313 12.68175888061523 10.07961463928223 L 15.71438884735107 13.1122350692749 C 16.19191932678223 13.59487438201904 16.18969917297363 14.37516498565674 15.71133804321289 14.85352516174316 L 14.85052871704102 15.71433448791504 C 14.62096881866455 15.94638442993164 14.31203842163086 16.07523536682129 13.98254871368408 16.07523536682129 Z M 6.326838493347168 2.93339467048645 C 4.4556884765625 2.93339467048645 2.933398485183716 4.455674648284912 2.933398485183716 6.326814651489258 C 2.933398485183716 8.197955131530762 4.4556884765625 9.720244407653809 6.326838493347168 9.720244407653809 C 8.197988510131836 9.720244407653809 9.720278739929199 8.197955131530762 9.720278739929199 6.326814651489258 C 9.720278739929199 4.455674648284912 8.197988510131836 2.93339467048645 6.326838493347168 2.93339467048645 Z" stroke="none"/><path d="M 13.98254299163818 15.57523250579834 C 14.16923046112061 15.57523250579834 14.3555383682251 15.50374984741211 14.49697875976563 15.36078453063965 L 15.3577880859375 14.49997425079346 C 15.64371871948242 14.21404457092285 15.64371871948242 13.75170516967773 15.36083793640137 13.46578502655029 L 12.32820796966553 10.43316459655762 C 12.19132804870605 10.29628467559814 12.00578880310059 10.22024440765381 11.81111812591553 10.22024440765381 L 11.31530857086182 10.22024440765381 C 12.15482807159424 9.146514892578125 12.65367794036865 7.795974731445313 12.65367794036865 6.326814651489258 C 12.65367794036865 2.831864833831787 9.821808815002441 4.721069217339391e-06 6.326838493347168 4.721069217339391e-06 C 2.831868410110474 4.721069217339391e-06 -1.593933120602742e-06 2.831864833831787 -1.593933120602742e-06 6.326814651489258 C -1.593933120602742e-06 9.821774482727051 2.831868410110474 12.65363502502441 6.326838493347168 12.65363502502441 C 7.795998573303223 12.65363502502441 9.146538734436035 12.15479469299316 10.2202787399292 11.31527519226074 L 10.2202787399292 11.81107425689697 C 10.2202787399292 12.00574493408203 10.29631805419922 12.19129467010498 10.43319797515869 12.32817459106445 L 13.46582794189453 15.36078453063965 C 13.60878849029541 15.50374984741211 13.79585552215576 15.57523250579834 13.98254299163818 15.57523250579834 M 6.326838493347168 2.43339467048645 C 8.477358818054199 2.43339467048645 10.2202787399292 4.173264503479004 10.2202787399292 6.326814651489258 C 10.2202787399292 8.477324485778809 8.480398178100586 10.22024440765381 6.326838493347168 10.22024440765381 C 4.176318168640137 10.22024440765381 2.433398485183716 8.480374336242676 2.433398485183716 6.326814651489258 C 2.433398485183716 4.176304817199707 4.173278331756592 2.43339467048645 6.326838493347168 2.43339467048645 M 13.98254871368408 16.57523536682129 C 13.52049827575684 16.57523536682129 13.08585834503174 16.39504432678223 12.75869846343994 16.0678653717041 L 9.72609806060791 13.03528499603271 C 9.679451942443848 12.98863887786865 9.635798454284668 12.93976879119873 9.595242500305176 12.888916015625 C 8.58954906463623 13.39217472076416 7.480997085571289 13.65363502502441 6.326838493347168 13.65363502502441 C 2.286808490753174 13.65363502502441 -1.000001549720764 10.36683464050293 -1.000001549720764 6.326814651489258 C -1.000001549720764 2.286794662475586 2.286808490753174 -0.9999952912330627 6.326838493347168 -0.9999952912330627 C 10.366868019104 -0.9999952912330627 13.65367794036865 2.286794662475586 13.65367794036865 6.326814651489258 C 13.65367794036865 7.480973243713379 13.39222240447998 8.589516639709473 12.88895988464355 9.595211029052734 C 12.93981266021729 9.635765075683594 12.98867321014404 9.679409027099609 13.03531837463379 9.726055145263672 L 16.06794929504395 12.75867462158203 L 16.06983757019043 12.76056480407715 L 16.07171821594238 12.76246452331543 C 16.7402286529541 13.43816471099854 16.73716926574707 14.53481483459473 16.06489753723145 15.20708465576172 L 15.20408821105957 16.06789398193359 C 14.87840747833252 16.39512252807617 14.44483375549316 16.57523536682129 13.98254871368408 16.57523536682129 Z M 6.326838493347168 3.43339467048645 C 4.731388568878174 3.43339467048645 3.433398485183716 4.731374740600586 3.433398485183716 6.326814651489258 C 3.433398485183716 7.92225456237793 4.731388568878174 9.220244407653809 6.326838493347168 9.220244407653809 C 7.922288417816162 9.220244407653809 9.220278739929199 7.92225456237793 9.220278739929199 6.326814651489258 C 9.220278739929199 4.731374740600586 7.922288417816162 3.43339467048645 6.326838493347168 3.43339467048645 Z" stroke="none" fill="#fff"/></g></g></svg>